{
  "accessors": [
    {
      "bufferView": 2,
      "componentType": 5126,
      "count": 65532,
      "max": [
        0.155022993683815,
        7.2959980964660645,
        0.6396070122718811
      ],
      "min": [
        -0.83605301380157471,
        6.4185709953308105,
        -0.33275601267814636
      ],
      "type": "VEC3"
    },
    {
      "bufferView": 2,
      "byteOffset": 786384,
      "componentType": 5126,
      "count": 65532,
      "max": [
        0.99998760223388672,
        0.99999260902404785,
        0.99997228384017944
      ],
      "min": [
        -0.99998044967651367,
        -0.99998283386230469,
        -0.9999624490737915
      ],
      "type": "VEC3"
    },
    {
      "bufferView": 1,
      "componentType": 5126,
      "count": 65532,
      "max": [
        0.99664998054504395,
        1
      ],
      "min": [
        0.00041400000918656588,
        0
      ],
      "type": "VEC2"
    },
    {
      "bufferView": 0,
      "componentType": 5125,
      "count": 364641,
      "max": [
        65531
      ],
      "min": [
        0
      ],
      "type": "SCALAR"
    },
    {
      "bufferView": 2,
      "byteOffset": 1572768,
      "componentType": 5126,
      "count": 65532,
      "max": [
        0.13307499885559082,
        7.3867969512939453,
        0.50203299522399902
      ],
      "min": [
        -0.97687500715255737,
        6.5349411964416504,
        -0.37689998745918274
      ],
      "type": "VEC3"
    },
    {
      "bufferView": 2,
      "byteOffset": 2359152,
      "componentType": 5126,
      "count": 65532,
      "max": [
        0.99995100498199463,
        0.99999970197677612,
        0.99999195337295532
      ],
      "min": [
        -0.99985891580581665,
        -0.99999237060546875,
        -0.99995964765548706
      ],
      "type": "VEC3"
    },
    {
      "bufferView": 1,
      "byteOffset": 524256,
      "componentType": 5126,
      "count": 65532,
      "max": [
        0.99870002269744873,
        0.97023600339889526
      ],
      "min": [
        0,
        0
      ],
      "type": "VEC2"
    },
    {
      "bufferView": 0,
      "byteOffset": 1458564,
      "componentType": 5125,
      "count": 340872,
      "max": [
        65531
      ],
      "min": [
        0
      ],
      "type": "SCALAR"
    },
    {
      "bufferView": 2,
      "byteOffset": 3145536,
      "componentType": 5126,
      "count": 13360,
      "max": [
        -0.092488996684551239,
        7.3548150062561035,
        0.22384800016880035
      ],
      "min": [
        -0.97503000497817993,
        6.6925530433654785,
        -0.37071400880813599
      ],
      "type": "VEC3"
    },
    {
      "bufferView": 2,
      "byteOffset": 3305856,
      "componentType": 5126,
      "count": 13360,
      "max": [
        0.99740421772003174,
        0.99987208843231201,
        0.98446720838546753
      ],
      "min": [
        -0.99990421533584595,
        -0.99887454509735107,
        -0.99998593330383301
      ],
      "type": "VEC3"
    },
    {
      "bufferView": 1,
      "byteOffset": 1048512,
      "componentType": 5126,
      "count": 13360,
      "max": [
        0.97473698854446411,
        0.96847999095916748
      ],
      "min": [
        0.0023940000683069229,
        0.0012529999949038029
      ],
      "type": "VEC2"
    },
    {
      "bufferView": 0,
      "byteOffset": 2822052,
      "componentType": 5125,
      "count": 57189,
      "max": [
        13359
      ],
      "min": [
        0
      ],
      "type": "SCALAR"
    }
  ],
  "asset": {
    "extras": {
      "author": "Digital Atlas of Ancient Life (https://sketchfab.com/DigitalAtlasOfAncientLife)",
      "license": "CC0-1.0 (http://creativecommons.org/publicdomain/zero/1.0/)",
      "source": "https://sketchfab.com/3d-models/foraminifera-zellia-and-parafusulina-pri-ecb019b186004fd8b1e1068ce6ffd742",
      "title": "Foraminifera: Zellia and Parafusulina (PRI)"
    },
    "generator": "Sketchfab-7.80.0",
    "version": "2.0"
  },
  "bufferViews": [
    {
      "buffer": 0,
      "byteLength": 3050808,
      "byteOffset": 0,
      "name": "floatBufferViews",
      "target": 34963
    },
    {
      "buffer": 0,
      "byteLength": 1155392,
      "byteOffset": 3050808,
      "byteStride": 8,
      "name": "floatBufferViews",
      "target": 34962
    },
    {
      "buffer": 0,
      "byteLength": 3466176,
      "byteOffset": 4206200,
      "byteStride": 12,
      "name": "floatBufferViews",
      "target": 34962
    }
  ],
  "buffers": [
    {
      "byteLength": 7672376,
      "uri": "scene.bin"
    }
  ],
  "extensionsUsed": [
    "KHR_materials_unlit"
  ],
  "images": [
    {
      "uri": "textures/PRI49930-766777_baseColor.jpeg"
    }
  ],
  "materials": [
    {
      "doubleSided": true,
      "emissiveFactor": [
        0,
        0,
        0
      ],
      "extensions": {
        "KHR_materials_unlit": {}
      },
      "name": "PRI49930-766777",
      "pbrMetallicRoughness": {
        "baseColorFactor": [
          1,
          1,
          1,
          1
        ],
        "baseColorTexture": {
          "index": 0,
          "texCoord": 0
        },
        "metallicFactor": 0,
        "roughnessFactor": 1
      }
    }
  ],
  "meshes": [
    {
      "primitives": [
        {
          "attributes": {
            "NORMAL": 1,
            "POSITION": 0,
            "TEXCOORD_0": 2
          },
          "indices": 3,
          "material": 0,
          "mode": 4
        }
      ]
    },
    {
      "primitives": [
        {
          "attributes": {
            "NORMAL": 5,
            "POSITION": 4,
            "TEXCOORD_0": 6
          },
          "indices": 7,
          "material": 0,
          "mode": 4
        }
      ]
    },
    {
      "primitives": [
        {
          "attributes": {
            "NORMAL": 9,
            "POSITION": 8,
            "TEXCOORD_0": 10
          },
          "indices": 11,
          "material": 0,
          "mode": 4
        }
      ]
    }
  ],
  "nodes": [
    {
      "children": [
        1
      ],
      "name": "RootNode (gltf orientation matrix)",
      "rotation": [
        -0.70710678118654746,
        -0,
        -0,
        0.70710678118654757
      ]
    },
    {
      "children": [
        2
      ],
      "matrix": [
        0.90220403671264648,
        -0.10171081125736237,
        0.41914531588554382,
        0,
        -0.42995744943618774,
        -0.28897646069526672,
        0.85535323619842529,
        0,
        0.034124467521905899,
        -0.95191782712936401,
        -0.30444705486297607,
        0,
        2.9231905937194824,
        8.9806385040283203,
        -5.5606498718261719,
        1
      ],
      "name": "RootNode (model correction matrix)"
    },
    {
      "children": [
        3,
        4,
        5
      ],
      "name": "PRI49930-766777.obj.cleaner.materialmerger.gles"
    },
    {
      "mesh": 0,
      "name": ""
    },
    {
      "mesh": 1,
      "name": ""
    },
    {
      "mesh": 2,
      "name": ""
    }
  ],
  "samplers": [
    {
      "magFilter": 9729,
      "minFilter": 9987,
      "wrapS": 10497,
      "wrapT": 10497
    }
  ],
  "scene": 0,
  "scenes": [
    {
      "name": "OSG_Scene",
      "nodes": [
        0
      ]
    }
  ],
  "textures": [
    {
      "sampler": 0,
      "source": 0
    }
  ]
}

